<?xml version="1.0" encoding="UTF-8"?> <svg xmlns="http://www.w3.org/2000/svg" width="70" height="62" viewBox="0 0 70 62" fill="none"><g clip-path="url(#clip0_140_5636)"><path d="M70.0001 37.2202C69.67 37.8863 69.1702 38.4537 68.5509 38.8651C67.9317 39.2764 67.2149 39.5173 66.4729 39.5634C64.4574 39.8427 64.0864 40.5399 65.007 42.2676C65.2905 42.7165 65.4165 43.247 65.3652 43.7754C65.3139 44.3039 65.088 44.8002 64.7234 45.1861C64.5332 45.3735 64.4057 45.6151 64.3582 45.8779C64.3107 46.1406 64.3457 46.4116 64.4583 46.6537C64.4818 47.3325 64.3486 48.0076 64.0689 48.6266C63.8211 49.2267 63.6474 49.8548 63.5519 50.4969C63.5519 51.4484 63.8854 52.3956 63.9162 53.3504C64.008 55.8895 63.0632 57.3746 60.5724 57.9842C58.2651 58.4623 55.9336 58.815 53.5881 59.0407C52.5482 59.1774 51.4801 59.124 50.4503 59.2983C49.7314 59.3775 49.045 59.6409 48.4577 60.0629C47.8703 60.4849 47.4018 61.0513 47.0973 61.7074H46.8338L45.9241 61.2321C46.3744 60.333 47.0499 59.5659 47.8847 59.0055C48.7196 58.4451 49.6854 58.1105 50.688 58.0342C53.3446 57.759 56.008 57.5456 58.6622 57.2512C59.355 57.1467 60.0334 56.9628 60.6842 56.7034C61.3074 56.5348 61.8508 56.1509 62.2181 55.6199C62.5853 55.0889 62.7527 54.445 62.6905 53.8024C62.6296 52.67 62.3144 51.5418 62.3378 50.4169C62.4538 49.59 62.6625 48.7789 62.9598 47.9987C63.0624 47.6018 63.3067 47.1157 63.1725 46.8063C62.9721 46.4621 62.9005 46.0578 62.9703 45.6657C63.0401 45.2736 63.2468 44.919 63.5536 44.665C63.7081 44.5453 63.8372 44.3961 63.9334 44.2259C64.0296 44.0558 64.091 43.8682 64.1138 43.6741C64.1366 43.48 64.1205 43.2833 64.0664 43.0955C64.0123 42.9077 63.9213 42.7325 63.7987 42.5803C62.7146 40.5632 63.5186 38.9389 65.7325 38.4394C65.9459 38.391 66.161 38.3501 66.377 38.3151C68.545 37.9657 68.7669 37.573 67.8046 35.6259C67.9443 35.4764 68.096 35.3387 68.2582 35.214C68.4172 35.1326 68.5851 35.0696 68.7585 35.0264L70.0043 36.6941L70.0001 37.2202Z" fill="#050505"></path><path d="M46.306 -0.00195312C46.7041 0.139803 47.1024 0.281003 47.5009 0.421647C47.5943 1.70162 47.5943 1.70162 45.2495 1.22048V-0.00195312H46.306Z" fill="#050505"></path><path d="M62.0425 27.9012L62.4303 24.63L62.8906 24.4766L63.6952 25.358C62.9598 26.0234 64.1555 27.7094 62.0425 27.9012Z" fill="#050505"></path><path d="M65.5597 30.815L64.5349 31.5779L63.0615 29.4224L64.108 28.6895L65.5597 30.815Z" fill="#050505"></path><path d="M66.3719 31.9062L67.9004 33.93L66.914 34.7639L65.4038 32.7368L66.3719 31.9062Z" fill="#050505"></path><path d="M55.2158 5.40502L56.0113 4.42773L57.9026 6.15216L57.0737 7.1286L55.2158 5.40502Z" fill="#050505"></path><path d="M57.8643 8.03693L58.8073 7.19141L60.375 9.14846L59.396 9.97149L57.8643 8.03693Z" fill="#050505"></path><path d="M48.6802 1.96186L49.0846 0.746094L51.4652 1.6575L50.9307 2.79572L48.6802 1.96186Z" fill="#050505"></path><path d="M60.1165 10.9679L61.1913 10.3008L62.4754 12.3804L61.4256 13.0967L60.1165 10.9679Z" fill="#050505"></path><path d="M64.0749 16.091L62.7257 16.4479C62.8924 15.494 61.1705 14.5659 63.0992 13.6729L64.0749 16.091Z" fill="#050505"></path><path d="M64.445 23.8233L63.2209 23.4464C63.3143 22.7568 63.4052 22.0872 63.5136 21.2917L64.7919 21.1816L64.445 23.8233Z" fill="#050505"></path><path d="M52.7027 2.24512L54.8415 3.5426L54.2036 4.63246L52.1606 3.41336L52.7027 2.24512Z" fill="#050505"></path><path d="M62.9675 17.6719L64.4093 17.4492L64.7953 19.8491C62.6848 20.1659 63.7113 18.4457 62.9675 17.6719Z" fill="#050505"></path><path d="M0 10.5254H7.398C10.7607 10.5254 13.1425 11.387 14.5433 13.1103C15.9442 14.8337 16.6447 17.3074 16.6447 20.5317V34.0619C16.6447 37.4529 15.9651 40.0521 14.6059 41.8593C13.2467 43.6666 10.9422 44.5696 7.69235 44.5685H0V10.5254ZM7.48139 42.1762C8.84898 42.2779 10.2092 41.8989 11.3271 41.1047C12.193 40.3713 12.7794 39.3617 12.9874 38.2462C13.2703 36.7008 13.3972 35.1308 13.3659 33.5599V20.8652C13.4059 19.3733 13.2506 17.8825 12.904 16.4308C12.6457 15.396 12.0178 14.4914 11.1387 13.8875C9.99159 13.2283 8.67588 12.9212 7.35547 13.0044H3.19451V42.1754L7.48139 42.1762Z" fill="#050505"></path><path d="M30.3792 10.2715H33.5737V44.318H30.3792V10.2715Z" fill="#050505"></path><path d="M39.6292 10.2715H47.0272C50.3898 10.2715 52.7716 11.1331 54.1725 12.8565C55.5734 14.5798 56.2738 17.0535 56.2738 20.2778V33.8122C56.2738 37.2032 55.5942 39.8023 54.235 41.6096C52.8758 43.4168 50.5711 44.3205 47.3207 44.3205H39.6292V10.2715ZM47.1114 41.9223C48.479 42.024 49.8392 41.645 50.9571 40.8508C51.823 40.1174 52.4093 39.1078 52.6173 37.9923C52.9003 36.4468 53.0272 34.8768 52.9959 33.306V20.6113C53.0359 19.1194 52.8806 17.6286 52.534 16.1769C52.2757 15.1421 51.6478 14.2375 50.7687 13.6336C49.6216 12.9743 48.3059 12.6672 46.9855 12.7505H42.8245V41.9214L47.1114 41.9223Z" fill="#050505"></path><path d="M19.79 25.0957H26.641V26.9685H19.79V25.0957Z" fill="#050505"></path></g><defs><clipPath id="clip0_140_5636"><rect width="70" height="61.7056" fill="white"></rect></clipPath></defs></svg> 